<svg width="14" height="14" viewBox="0 0 14 14" fill="none" xmlns="http://www.w3.org/2000/svg">
<path d="M6.99953 4.56241C5.65333 4.56241 4.56203 5.65372 4.56203 6.99991C4.56203 8.34611 5.65333 9.43741 6.99953 9.43741C8.34572 9.43741 9.43703 8.34611 9.43703 6.99991C9.43703 5.65372 8.34572 4.56241 6.99953 4.56241Z" fill="#C39B81"/>
<path fill-rule="evenodd" clip-rule="evenodd" d="M3.07668 0.311013C5.66277 0.0219799 8.3363 0.0219799 10.9224 0.311014C12.3462 0.470144 13.4946 1.59198 13.6617 3.02077C13.9709 5.66452 13.9709 8.3353 13.6617 10.9791C13.4946 12.4078 12.3462 13.5297 10.9224 13.6888C8.3363 13.9778 5.66277 13.9778 3.07668 13.6888C1.65288 13.5297 0.504487 12.4078 0.337377 10.9791C0.028166 8.3353 0.028166 5.66452 0.337377 3.02077C0.504487 1.59198 1.65288 0.470144 3.07668 0.311013ZM10.7495 2.49991C10.3353 2.49991 9.99953 2.8357 9.99953 3.24991C9.99953 3.66413 10.3353 3.99991 10.7495 3.99991C11.1637 3.99991 11.4995 3.66413 11.4995 3.24991C11.4995 2.8357 11.1637 2.49991 10.7495 2.49991ZM3.43703 6.99991C3.43703 5.0324 5.03201 3.43741 6.99953 3.43741C8.96704 3.43741 10.562 5.0324 10.562 6.99991C10.562 8.96743 8.96704 10.5624 6.99953 10.5624C5.03201 10.5624 3.43703 8.96743 3.43703 6.99991Z" fill="#C39B81"/>
</svg>
