<svg width="8" height="14" viewBox="0 0 8 14" fill="none" xmlns="http://www.w3.org/2000/svg">
<path d="M7.42051 11.3637C7.3914 11.275 7.29321 11.2301 7.20527 11.2612C6.89316 11.3713 6.56575 11.4332 6.23434 11.4444C6.04824 11.4646 5.85998 11.4419 5.68405 11.3778C5.50812 11.3138 5.34922 11.2102 5.21958 11.0749C5.08995 10.9397 4.99304 10.7764 4.93631 10.5978C4.8808 10.4229 4.86524 10.2379 4.89069 10.0563C4.8918 10.0484 4.89242 10.0404 4.89242 10.0324V5.68368H7.52775C7.6163 5.68368 7.68808 5.61179 7.68808 5.52311V3.74437C7.68808 3.65569 7.6163 3.5838 7.52775 3.5838H4.89242V0.160571C4.89242 0.0718898 4.82063 0 4.73209 0H2.85158C2.825 0.00177826 2.8001 0.0136204 2.78193 0.0331212C2.76375 0.052622 2.75367 0.0783193 2.75373 0.104994C2.70967 0.933607 2.42586 1.73149 1.93691 2.40138C1.46977 3.04139 0.834661 3.53817 0.103108 3.83719C0.0413821 3.86242 0 3.92195 0 3.98872V5.52311C0 5.61179 0.0717828 5.68368 0.160331 5.68368H1.39783V10.2614C1.39783 11.8223 2.55105 14.0482 5.59133 13.9992C6.56266 13.9992 7.64018 13.5988 7.96754 13.2416C8.00116 13.2049 8.00748 13.1525 7.99196 13.1052L7.42051 11.3637Z" fill="#C39B81"/>
</svg>
