<svg width="17" height="12" viewBox="0 0 17 12" fill="none" xmlns="http://www.w3.org/2000/svg">
<path fill-rule="evenodd" clip-rule="evenodd" d="M4.53325 0.66779C7.17399 0.472065 9.82682 0.472065 12.4676 0.66779L14.2415 0.799267C15.2295 0.872499 16.0378 1.57405 16.2011 2.50012C16.6098 4.81725 16.6098 7.18255 16.2011 9.49968C16.0378 10.4258 15.2295 11.1273 14.2415 11.2005L12.4676 11.332C9.82683 11.5277 7.17398 11.5277 4.53325 11.332L2.75936 11.2005C1.7713 11.1273 0.962991 10.4258 0.799662 9.49968C0.390998 7.18255 0.390998 4.81725 0.799662 2.50012C0.962991 1.57405 1.7713 0.872499 2.75936 0.799267L4.53325 0.66779ZM6.91705 7.85251V4.14729C6.91705 3.9724 7.11844 3.86438 7.27674 3.95436L10.536 5.80696C10.6897 5.89436 10.6897 6.10545 10.536 6.19284L7.27674 8.04544C7.11844 8.13542 6.91705 8.0274 6.91705 7.85251Z" fill="#C39B81"/>
</svg>
